#!OML:ASF H:\Dans Jumps\Project 1\Capture day 1\Session 1\subject.ASF
:FULLY-SPECIFIED
:DEGREES
463
root 0.262166 17.7718 -0.828354 8.74056 1.40059 -1.09482
lowerback -3.56163 -0.612854 -0.0483511
upperback 2.33074 -0.872266 1.38381
thorax 4.42531 -0.457277 1.3921
lowerneck -11.6259 0.00732028 -1.93867
upperneck 35.4313 0.184266 0.975103
head 13.9992 -0.048435 0.765405
rclavicle 5.31749e-015 -9.54166e-015
rhumerus -25.3779 -14.6738 -81.126
rradius 24.0607
rwrist 35.7977
rhand -23.1238 -27.6572
rfingers 7.12502
rthumb 3.32357 -57.6111
lclavicle 5.31749e-015 -9.54166e-015
lhumerus -23.6884 -4.52981 90.56
lradius 21.1599
lwrist 15.3379
lhand -24.9124 -7.83657
lfingers 7.12502
lthumb 1.59613 22.1372
rfemur -12.3824 -2.92804 20.5256
rtibia 20.5526
rfoot -14.8033 0.490422
rtoes 17.7423
lfemur -9.18688 7.26847 -17.8921
ltibia 16.7147
lfoot -11.0379 4.55716
ltoes 5.88777
464
root 0.262309 17.7708 -0.83111 8.7024 1.34017 -1.12242
lowerback -3.58274 -0.605986 -0.0143121
upperback 2.3292 -0.865001 1.38088
thorax 4.43493 -0.452601 1.37031
lowerneck -11.6399 0.0159549 -1.94615
upperneck 35.4128 0.1984 0.97678
head 13.9936 -0.0431839 0.769362
rclavicle -1.98785e-016 -7.55382e-015
rhumerus -25.452 -14.6262 -81.1478
rradius 24.0598
rwrist 35.7988
rhand -23.1262 -27.6487
rfingers 7.12502
rthumb 3.32125 -57.6026
lclavicle -1.98785e-016 -7.55382e-015
lhumerus -23.6522 -4.59155 90.5575
lradius 21.1641
lwrist 15.275
lhand -24.8676 -7.7198
lfingers 7.12502
lthumb 1.63942 22.2537
rfemur -12.3528 -2.91007 20.549
rtibia 20.544
rfoot -14.8011 0.536625
rtoes 17.7817
lfemur -9.13644 7.27661 -17.8618
ltibia 16.7056
lfoot -11.0516 4.62686
ltoes 5.85504
465
root 0.262516 17.7695 -0.834108 8.66317 1.2765 -1.15245
lowerback -3.60001 -0.600003 0.020388
upperback 2.3283 -0.859013 1.37957
thorax 4.44311 -0.448563 1.34977
lowerneck -11.6583 0.0273938 -1.95202
upperneck 35.4 0.21808 0.973516
head 13.9916 -0.0360328 0.77193
rclavicle 8.15017e-015 -5.56597e-015
rhumerus -25.5106 -14.5979 -81.1638
rradius 24.0413
rwrist 35.8325
rhand -23.1202 -27.6347
rfingers 7.12502
rthumb 3.32698 -57.5884
lclavicle 8.15017e-015 -5.56597e-015
lhumerus -23.619 -4.6229 90.5465
lradius 21.1569
lwrist 15.1727
lhand -24.8464 -7.66178
lfingers 7.12502
lthumb 1.65989 22.3115
rfemur -12.3235 -2.89503 20.5745
rtibia 20.5357
rfoot -14.7986 0.588852
rtoes 17.8168
lfemur -9.08521 7.28138 -17.8288
ltibia 16.6967
lfoot -11.0656 4.70346
ltoes 5.80879
466
root 0.262738 17.7682 -0.837367 8.6231 1.2098 -1.18815
lowerback -3.61396 -0.595256 0.0565437
upperback 2.32714 -0.854905 1.38226
thorax 4.44922 -0.445474 1.33244
lowerneck -11.6819 0.0415784 -1.9528
upperneck 35.3971 0.243846 0.960865
head 13.9951 -0.0269122 0.770821
rclavicle 5.06901e-015 -1.98785e-016
rhumerus -25.5539 -14.5878 -81.1721
rradius 24.0041
rwrist 35.8909
rhand -23.0985 -27.6215
rfingers 7.12502
rthumb 3.34802 -57.575
lclavicle 5.06901e-015 -1.98785e-016
lhumerus -23.5899 -4.62695 90.5305
lradius 21.1365
lwrist 15.0425
lhand -24.8618 -7.68299
lfingers 7.12502
lthumb 1.64503 22.2904
rfemur -12.2964 -2.87922 20.6056
rtibia 20.5302
rfoot -14.7963 0.645392
rtoes 17.8581
lfemur -9.03227 7.28257 -17.789
ltibia 16.6854
lfoot -11.0806 4.78491
ltoes 5.75944
467
root 0.263101 17.7667 -0.840698 8.58334 1.1413 -1.21163
lowerback -3.62681 -0.592374 0.0778378
upperback 2.32528 -0.852392 1.38347
thorax 4.45422 -0.443602 1.32182
lowerneck -11.7064 0.057985 -1.94611
upperneck 35.4019 0.274092 0.939131
head 14.0023 -0.0161378 0.765464
rclavicle 1.49089e-015 -6.75868e-015
rhumerus -25.5856 -14.6001 -81.1705
rradius 23.9511
rwrist 35.9683
rhand -23.0569 -27.6037
rfingers 7.12502
rthumb 3.38813 -57.5565
lclavicle 1.49089e-015 -6.75868e-015
lhumerus -23.5655 -4.60686 90.5101
lradius 21.103
lwrist 14.8916
lhand -24.9286 -7.79183
lfingers 7.12502
lthumb 1.58051 22.1821
rfemur -12.2724 -2.87523 20.6222
rtibia 20.5294
rfoot -14.7958 0.714467
rtoes 17.9081
lfemur -8.97746 7.27935 -17.7635
ltibia 16.6703
lfoot -11.0946 4.87801
ltoes 5.67045
468
root 0.263653 17.7652 -0.843918 8.54133 1.07412 -1.23273
lowerback -3.64057 -0.590792 0.0951427
upperback 2.3259 -0.851478 1.38556
thorax 4.46243 -0.442674 1.31421
lowerneck -11.7322 0.0751912 -1.93599
upperneck 35.4109 0.306154 0.913058
head 14.0118 -0.00473963 0.758065
rclavicle 9.74045e-015 -5.1684e-015
rhumerus -25.6092 -14.6233 -81.1629
rradius 23.8964
rwrist 36.0423
rhand -23.0037 -27.5917
rfingers 7.12502
rthumb 3.43954 -57.5437
lclavicle 9.74045e-015 -5.1684e-015
lhumerus -23.5401 -4.556 90.4842
lradius 21.0557
lwrist 14.7122
lhand -25.0134 -7.93067
lfingers 7.12502
lthumb 1.49867 22.0438
rfemur -12.2474 -2.88257 20.6351
rtibia 20.5324
rfoot -14.7973 0.793836
rtoes 17.9669
lfemur -8.91872 7.27321 -17.7413
ltibia 16.6515
lfoot -11.1039 4.99164
ltoes 5.53034
469
root 0.264355 17.7637 -0.847081 8.4979 1.00894 -1.25174
lowerback -3.65731 -0.590751 0.108548
upperback 2.32999 -0.852519 1.38845
thorax 4.47607 -0.44287 1.30945
lowerneck -11.7546 0.0926772 -1.92429
upperneck 35.4197 0.33887 0.884801
head 14.0204 0.00685135 0.749585
rclavicle -1.74434e-014 9.14409e-015
rhumerus -25.6258 -14.65 -81.1516
rradius 23.845
rwrist 36.1034
rhand -22.9504 -27.5672
rfingers 7.12502
rthumb 3.49102 -57.5184
lclavicle -1.74434e-014 9.14409e-015
lhumerus -23.5098 -4.47826 90.453
lradius 20.9925
lwrist 14.5125
lhand -25.0749 -8.00236
lfingers 7.12502
lthumb 1.4392 21.9725
rfemur -12.2221 -2.89781 20.6451
rtibia 20.5387
rfoot -14.8 0.878672
rtoes 18.0301
lfemur -8.85946 7.27117 -17.7231
ltibia 16.6297
lfoot -11.1064 5.12438
ltoes 5.32194
470
root 0.265198 17.7623 -0.850185 8.45363 0.947141 -1.26443
lowerback -3.67658 -0.592209 0.11467
upperback 2.33686 -0.85517 1.39016
thorax 4.49416 -0.444084 1.30739
lowerneck -11.7687 0.109406 -1.91508
upperneck 35.4233 0.370147 0.858778
head 14.0247 0.0178201 0.742159
rclavicle -9.44227e-016 4.37326e-015
rhumerus -25.6393 -14.6793 -81.1381
rradius 23.8018
rwrist 36.1471
rhand -22.9064 -27.5303
rfingers 7.12502
rthumb 3.53344 -57.4808
lclavicle -9.44227e-016 4.37326e-015
lhumerus -23.4759 -4.38021 90.417
lradius 20.9156
lwrist 14.3006
lhand -25.1364 -8.07606
lfingers 7.12502
lthumb 1.37981 21.8992
rfemur -12.1952 -2.91941 20.6477
rtibia 20.5445
rfoot -14.8019 0.96559
rtoes 18.0931
lfemur -8.80337 7.27714 -17.7145
ltibia 16.6103
lfoot -11.1036 5.27602
ltoes 5.06679
471
root 0.266081 17.761 -0.85338 8.41033 0.889539 -1.27775
lowerback -3.69783 -0.594432 0.120797
upperback 2.3451 -0.858887 1.39187
thorax 4.51484 -0.445834 1.30523
lowerneck -11.7751 0.124142 -1.91296
upperneck 35.4231 0.397232 0.841145
head 14.0256 0.0271793 0.738686
rclavicle 1.83876e-015 -1.27222e-014
rhumerus -25.652 -14.7126 -81.1223
rradius 23.7658
rwrist 36.1733
rhand -22.8804 -27.4793
rfingers 7.12502
rthumb 3.55858 -57.4294
lclavicle 1.83876e-015 -1.27222e-014
lhumerus -23.438 -4.27771 90.3792
lradius 20.8251
lwrist 14.0932
lhand -25.1852 -8.12359
lfingers 7.12502
lthumb 1.33267 21.852
rfemur -12.1693 -2.93758 20.6515
rtibia 20.5501
rfoot -14.8032 1.044
rtoes 18.1495
lfemur -8.75444 7.29412 -17.7085
ltibia 16.5945
lfoot -11.0958 5.44055
ltoes 4.77458
